<svg width="24" height="24" viewBox="0 0 24 24" fill="none" xmlns="http://www.w3.org/2000/svg">
  <!-- Eye -->
  <path d="M12 5C7 5 2.73 8.11 1 12.5C2.73 16.89 7 20 12 20C13.06 20 14.08 19.86 15.03 19.6" stroke="currentColor" stroke-width="2" stroke-linecap="round" stroke-linejoin="round"/>
  <path d="M12 8C9.79 8 8 9.79 8 12C8 14.21 9.79 16 12 16C12.74 16 13.41 15.78 13.97 15.4" stroke="currentColor" stroke-width="2" stroke-linecap="round" stroke-linejoin="round"/>
  <path d="M1 12.5C1 12.5 4.5 5 12 5C15.36 5 18.14 6.57 20 8.5" stroke="currentColor" stroke-width="2" stroke-linecap="round" stroke-linejoin="round"/>
  
  <!-- Magnifying glass -->
  <circle cx="17.5" cy="17.5" r="3.5" stroke="currentColor" stroke-width="2" stroke-linecap="round" stroke-linejoin="round"/>
  <path d="M20 20L22 22" stroke="currentColor" stroke-width="2" stroke-linecap="round" stroke-linejoin="round"/>
  
  <!-- Iris detail -->
  <circle cx="12" cy="12" r="2" stroke="currentColor" stroke-width="2" stroke-linecap="round" stroke-linejoin="round"/>
</svg>