<svg width="32" height="32" viewBox="0 0 32 32" fill="none" xmlns="http://www.w3.org/2000/svg">
  <!-- Background circle -->
  <circle cx="16" cy="16" r="16" fill="#172554"/>
  
  <!-- Eye -->
  <path d="M16 7C10.5 7 5.64 10.15 3.5 14.5C5.64 18.85 10.5 22 16 22C17.41 22 18.77 21.82 20.04 21.47" stroke="#60a5fa" stroke-width="2" stroke-linecap="round" stroke-linejoin="round"/>
  <path d="M16 10.5C13.24 10.5 11 12.74 11 15.5C11 18.26 13.24 20.5 16 20.5C16.99 20.5 17.88 20.21 18.63 19.73" stroke="#60a5fa" stroke-width="2" stroke-linecap="round" stroke-linejoin="round"/>
  <path d="M3.5 14.5C3.5 14.5 7.5 7 16 7C19.81 7 22.86 8.76 25 10.93" stroke="#60a5fa" stroke-width="2" stroke-linecap="round" stroke-linejoin="round"/>
  
  <!-- Magnifying glass -->
  <circle cx="22" cy="22" r="4" stroke="#60a5fa" stroke-width="2" stroke-linecap="round" stroke-linejoin="round"/>
  <path d="M25 25L27.5 27.5" stroke="#60a5fa" stroke-width="2" stroke-linecap="round" stroke-linejoin="round"/>
  
  <!-- Iris -->
  <circle cx="16" cy="15.5" r="2.5" stroke="#60a5fa" stroke-width="2" stroke-linecap="round" stroke-linejoin="round"/>
</svg>